Patient4_TMGait_0pt6_02_right_39_GRF.mot
version=1
nRows=45
nColumns=19
inDegrees=no
endheader
time	F1x	F1y	F1z	M1x	M1y	M1z	F2x	F2y	F2z	M2x	M2y	M2z	EC1x	EC1y	EC1z	EC2x	EC2y	EC2z
47.04	-22.854	731.1585	84.2677	-282.7113	-86.5562	763.7102	-9.8835	6.9012	-1.4814	1.6157	1.7123	14.7278	-0.0592	0.0182	-0.0073	-0.0462	0.0165	0.9585
47.0519	-15.6128	724.5446	78.2308	-279.8385	-79.6369	755.4511	-6.8834	5.6686	-0.97048	1.4213	1.2004	11.1933	-0.0592	0.0182	-0.0073	-0.0462	0.0165	0.9585
47.0639	-9.5128	717.3217	73.0668	-276.6441	-73.6288	746.2744	-4.3168	4.6503	-0.5607	1.2693	0.79861	8.2052	-0.0592	0.0182	-0.0073	-0.0462	0.0165	0.9585
47.0758	-4.8333	710.2729	68.9681	-273.4653	-68.7578	736.9615	-2.3135	3.9015	-0.25921	1.1665	0.50076	5.9309	-0.0592	0.0182	-0.0073	-0.0462	0.0165	0.9585
47.0877	-1.4858	704.1486	65.9727	-270.6261	-65.0544	728.2796	-0.93782	3.4388	-0.062459	1.114	0.3132	4.4226	-0.0592	0.0182	-0.0073	-0.0462	0.0165	0.9585
47.0996	0.83379	699.5229	63.8469	-268.3874	-62.2619	720.7834	-0.071952	3.1744	0.047464	1.0914	0.20775	3.5021	-0.0592	0.0182	-0.0073	-0.0462	0.0165	0.9585
47.1116	2.4816	696.758	62.4051	-266.9148	-60.1603	714.8358	0.34601	3.0495	0.084913	1.0851	0.18344	3.0439	-0.0592	0.0182	-0.0073	-0.0462	0.0165	0.9585
47.1235	3.8282	696.0161	61.4063	-266.2861	-58.4669	710.5967	0.46668	2.9275	0.067305	1.0613	0.21577	2.7753	-0.0592	0.0182	-0.0073	-0.0462	0.0165	0.9585
47.1354	5.1722	697.2835	60.6974	-266.4973	-56.9833	708.0535	0.35364	2.7275	0.0081731	0.99461	0.30416	2.5478	-0.0592	0.0182	-0.0073	-0.0462	0.0165	0.9585
47.1474	6.7544	700.4653	60.1604	-267.5023	-55.5445	707.1067	0.1318	2.2794	-0.080987	0.83474	0.42866	2.079	-0.0592	0.0182	-0.0073	-0.0462	0.0165	0.9585
47.1593	8.7582	705.4047	59.7087	-269.2243	-54.0227	707.5978	-0.16831	1.4672	-0.18674	0.54009	0.58254	1.2082	-0.0592	0.0182	-0.0073	-0.0462	0.0165	0.9585
47.1712	11.29	711.8952	59.3213	-271.5653	-52.371	709.3169	-0.44076	0.14263	-0.30227	0.064138	0.74145	-0.28709	-0.0592	0.0182	-0.0073	-0.0462	0.0165	0.9585
47.1831	14.4132	719.6984	58.9584	-274.4179	-50.5338	712.0196	-0.65528	-1.7618	-0.4085	-0.61698	0.87881	-2.4751	-0.0592	0.0182	-0.0073	-0.0462	0.0165	0.9585
47.1951	18.1515	728.5192	58.6821	-277.6478	-48.5598	715.4347	-0.69085	-4.2463	-0.48418	-1.5006	0.93416	-5.3774	-0.0592	0.0182	-0.0073	-0.0462	0.0165	0.9585
47.207	22.484	737.9952	58.5003	-281.0944	-46.4536	719.2246	-0.47622	-7.1208	-0.4903	-2.519	0.83246	-8.7611	-0.0592	0.0182	-0.0073	-0.0462	0.0165	0.9585
47.2189	27.3671	747.6141	58.4871	-284.5446	-44.2903	722.9394	0.14935	-9.9694	-0.38079	-3.5208	0.46549	-12.1419	-0.0592	0.0182	-0.0073	-0.0462	0.0165	0.9585
47.2309	32.7071	756.6505	58.6133	-287.7184	-42.0693	725.9622	1.3169	-11.9998	-0.095336	-4.225	-0.2879	-14.5695	-0.0592	0.0182	-0.0073	-0.0462	0.0165	0.9585
47.2428	38.3502	764.1344	58.8514	-290.2561	-39.8213	727.4684	3.1818	-12.0003	0.43227	-4.1993	-1.5615	-14.6197	-0.0592	0.0182	-0.0073	-0.0462	0.0165	0.9585
47.2547	44.083	768.9168	59.0934	-291.744	-37.5317	726.507	5.8296	-8.2154	1.2608	-2.8217	-3.4542	-10.2133	-0.0592	0.0182	-0.0073	-0.0462	0.0165	0.9585
47.2666	49.6871	769.8203	59.2386	-291.7646	-35.2036	722.0975	9.241	1.5968	2.4233	0.70539	-5.9865	1.2939	-0.0592	0.0182	-0.0073	-0.0462	0.0165	0.9585
47.2786	54.9498	765.7898	59.1722	-289.9468	-32.8269	713.3793	13.1659	20.051	3.8946	7.3093	-9.0227	22.9879	-0.0592	0.0182	-0.0073	-0.0462	0.0165	0.9585
47.2905	59.7065	755.8814	58.763	-285.9633	-30.3599	699.5886	17.0243	49.734	5.547	17.9036	-12.1918	57.9223	-0.0592	0.0182	-0.0073	-0.0462	0.0165	0.9585
47.3024	63.7971	739.2505	57.8758	-279.5205	-27.7499	680.068	19.7558	92.5159	7.0932	33.1393	-14.7714	108.327	-0.0592	0.0182	-0.0073	-0.0462	0.0165	0.9585
47.3144	67.0366	715.072	56.3268	-270.3334	-24.9031	654.1572	19.695	148.4755	8.0322	53.0232	-15.5937	174.3315	-0.0592	0.0182	-0.0073	-0.0462	0.0165	0.9585
47.3263	69.17	682.6116	53.9608	-258.1378	-21.7851	621.3024	15.019	214.8569	7.6915	76.539	-13.258	252.7158	-0.0592	0.0182	-0.0073	-0.0462	0.0165	0.9585
47.3382	69.9012	641.3716	50.6509	-242.7394	-18.4074	581.1325	4.9424	285.3274	5.2799	101.3816	-6.5932	336.001	-0.0592	0.0182	-0.0073	-0.0462	0.0165	0.9585
47.3501	68.905	591.3619	46.4391	-224.1103	-14.9421	533.7208	-8.318	351.892	-0.18548	124.6538	4.6349	414.5982	-0.0592	0.0182	-0.0073	-0.0462	0.0165	0.9585
47.3621	65.9672	533.4184	41.5038	-202.5158	-11.6335	479.8192	-21.8317	409.2023	-7.9932	144.4842	18.5156	481.8182	-0.0592	0.0182	-0.0073	-0.0462	0.0165	0.9585
47.374	60.9927	469.3062	36.222	-178.5544	-8.839	421.0074	-33.6231	456.7388	-17.1446	160.7402	33.1813	536.6896	-0.0592	0.0182	-0.0073	-0.0462	0.0165	0.9585
47.3859	54.1145	401.5101	30.957	-153.1115	-6.8081	359.4443	-42.8719	497.4696	-26.382	174.5584	46.9057	582.5998	-0.0592	0.0182	-0.0073	-0.0462	0.0165	0.9585
47.3979	45.6068	333.1036	25.9381	-127.3121	-5.6237	297.8264	-49.3696	535.0912	-34.6056	187.3387	58.4084	623.8942	-0.0592	0.0182	-0.0073	-0.0462	0.0165	0.9585
47.4098	35.9824	267.3618	21.2872	-102.3947	-5.1925	238.9604	-53.4527	572.316	-41.3311	200.0971	67.2624	663.9045	-0.0592	0.0182	-0.0073	-0.0462	0.0165	0.9585
47.4217	25.9574	207.4011	17.0447	-79.5574	-5.2769	185.5028	-55.4243	610.0641	-46.2833	213.1995	73.3441	703.7569	-0.0592	0.0182	-0.0073	-0.0462	0.0165	0.9585
47.4336	16.4165	155.5122	13.3012	-59.705	-5.6191	139.3443	-55.7866	647.8787	-49.9366	226.4626	77.3545	743.0903	-0.0592	0.0182	-0.0073	-0.0462	0.0165	0.9585
47.4456	8.0956	112.7659	10.0797	-43.2886	-5.9529	101.3348	-54.7867	684.3008	-52.6205	239.348	79.8154	780.3143	-0.0592	0.0182	-0.0073	-0.0462	0.0165	0.9585
47.4575	1.4122	79.0342	7.4204	-30.2978	-6.1484	71.3006	-52.8258	717.3889	-54.948	251.1241	81.5222	813.422	-0.0592	0.0182	-0.0073	-0.0462	0.0165	0.9585
47.4694	-3.5094	53.369	5.2612	-20.3995	-6.1015	48.3903	-50.1616	745.1815	-57.0181	261.0819	82.7087	840.2754	-0.0592	0.0182	-0.0073	-0.0462	0.0165	0.9585
47.4814	-6.7119	34.4237	3.5813	-13.0926	-5.813	31.4295	-47.1892	766.3196	-59.0079	268.7165	83.6707	859.5088	-0.0592	0.0182	-0.0073	-0.0462	0.0165	0.9585
47.4933	-8.2743	20.8007	2.2953	-7.8471	-5.247	19.1984	-44.0482	780.2773	-60.6298	273.8504	84.1592	870.5927	-0.0592	0.0182	-0.0073	-0.0462	0.0165	0.9585
47.5052	-8.3644	11.2532	1.3502	-4.1867	-4.4243	10.625	-40.8804	787.3845	-61.7561	276.5914	84.0601	874.011	-0.0592	0.0182	-0.0073	-0.0462	0.0165	0.9585
47.5171	-7.277	4.8489	0.68239	-1.7507	-3.4109	4.8589	-37.6891	788.4304	-62.1639	277.2226	83.1407	870.6699	-0.0592	0.0182	-0.0073	-0.0462	0.0165	0.9585
47.5291	-5.6664	0.96957	0.24	-0.28966	-2.4001	1.3679	-34.5325	784.5863	-61.9532	276.1305	81.5193	861.9636	-0.0592	0.0182	-0.0073	-0.0462	0.0165	0.9585
47.541	-3.9617	-1.0329	-0.011504	0.4469	-1.5308	-0.43871	-31.3982	777.1796	-61.288	273.7588	79.3834	849.3975	-0.0592	0.0182	-0.0073	-0.0462	0.0165	0.9585
47.5529	-2.4883	-1.7389	-0.11767	0.68891	-0.87922	-1.0509	-28.3359	767.7763	-60.4277	270.6243	77.0383	834.7545	-0.0592	0.0182	-0.0073	-0.0462	0.0165	0.9585
47.5649	-1.3046	-1.6881	-0.12762	0.63972	-0.43382	-1.0046	-25.335	757.985	-59.5809	267.2718	74.7188	819.8059	-0.0592	0.0182	-0.0073	-0.0462	0.0165	0.9585
